<?xml version="1.0" encoding="UTF-8" standalone="no"?>
<svg
   xmlns:lucid="lucid"
   xmlns:dc="http://purl.org/dc/elements/1.1/"
   xmlns:cc="http://creativecommons.org/ns#"
   xmlns:rdf="http://www.w3.org/1999/02/22-rdf-syntax-ns#"
   xmlns:svg="http://www.w3.org/2000/svg"
   xmlns="http://www.w3.org/2000/svg"
   xmlns:xlink="http://www.w3.org/1999/xlink"
   xmlns:sodipodi="http://sodipodi.sourceforge.net/DTD/sodipodi-0.dtd"
   xmlns:inkscape="http://www.inkscape.org/namespaces/inkscape"
   width="1760"
   height="1360"
   version="1.1"
   id="svg996"
   sodipodi:docname="bipedo.svg"
   inkscape:version="0.92.3 (2405546, 2018-03-11)">
  <metadata
     id="metadata1002">
    <rdf:RDF>
      <cc:Work
         rdf:about="">
        <dc:format>image/svg+xml</dc:format>
        <dc:type
           rdf:resource="http://purl.org/dc/dcmitype/StillImage" />
      </cc:Work>
    </rdf:RDF>
  </metadata>
  <defs
     id="defs1000" />
  <sodipodi:namedview
     pagecolor="#ffffff"
     bordercolor="#666666"
     borderopacity="1"
     objecttolerance="10"
     gridtolerance="10"
     guidetolerance="10"
     inkscape:pageopacity="0"
     inkscape:pageshadow="2"
     inkscape:window-width="1920"
     inkscape:window-height="1001"
     id="namedview998"
     showgrid="false"
     inkscape:zoom="0.69411765"
     inkscape:cx="655.45984"
     inkscape:cy="836.88007"
     inkscape:window-x="-9"
     inkscape:window-y="-9"
     inkscape:window-maximized="1"
     inkscape:current-layer="g994" />
  <g
     transform="translate(0 0)"
     lucid:page-tab-id="0_0"
     id="g994">
    <path
       d="M416 360c24.3 0 44 22.4 44 50s-19.7 50-44 50H284c-24.3 0-44-22.4-44-50s19.7-50 44-50z"
       stroke="#000"
       stroke-width="2"
       fill="#ffc374"
       id="path625" />
    <use
       xlink:href="#a"
       transform="matrix(1,0,0,1,245,365) translate(24.71604938271605 51.22222222222222)"
       id="use627" />
    <use
       xlink:href="#b"
       transform="matrix(1,0,0,1,245,365) translate(136.97530864197532 51.22222222222222)"
       id="use629" />
    <path
       d="M240 640h240v74H240z"
       stroke="#000"
       stroke-opacity="0"
       stroke-width="2"
       fill="#fff"
       fill-opacity="0"
       id="path631" />
    <use
       xlink:href="#c"
       transform="matrix(1,0,0,1,245,645) translate(-91.88888888888889 42.66666666666667)"
       id="use633" />
    <path
       d="M270 180h160v120H270z"
       stroke="#000"
       stroke-width="2"
       fill="#b391b5"
       id="path635" />
    <use
       xlink:href="#d"
       transform="matrix(1,0,0,1,275,185) translate(37.05 58.6)"
       id="use637" />
    <path
       d="M350 301v39.76"
       stroke="#000"
       stroke-width="2"
       fill="none"
       id="path639" />
    <path
       d="M351 301h-2v-1h2zM350 355.76l-4.64-14.26h9.28z"
       id="path641" />
    <path
       d="M350 359l-6-18.5h12zm-3.26-16.5l3.26 10.03 3.26-10.03z"
       id="path643" />
    <path
       d="M1440 210c0 27.6-22.4 50-50 50s-50-22.4-50-50 22.4-50 50-50 50 22.4 50 50z"
       stroke="#000"
       stroke-width="2"
       fill="#ff8f80"
       id="path645" />
    <use
       xlink:href="#e"
       transform="matrix(1,0,0,1,1345,165) translate(4.25 48.6)"
       id="use647" />
    <use
       xlink:href="#f"
       transform="matrix(1,0,0,1,1345,165) translate(75.75 48.6)"
       id="use649" />
    <path
       d="M1440 330c0 27.6-22.4 50-50 50s-50-22.4-50-50 22.4-50 50-50 50 22.4 50 50z"
       stroke="#000"
       stroke-width="2"
       fill="#ff8f80"
       id="path651" />
    <use
       xlink:href="#e"
       transform="matrix(1,0,0,1,1345,285) translate(4.25 48.6)"
       id="use653" />
    <use
       xlink:href="#g"
       transform="matrix(1,0,0,1,1345,285) translate(75.75 48.6)"
       id="use655" />
    <path
       d="M1440 450c0 27.6-22.4 50-50 50s-50-22.4-50-50 22.4-50 50-50 50 22.4 50 50z"
       stroke="#000"
       stroke-width="2"
       fill="#ff8f80"
       id="path657" />
    <use
       xlink:href="#e"
       transform="matrix(1,0,0,1,1345,405) translate(4.25 48.6)"
       id="use659" />
    <use
       xlink:href="#h"
       transform="matrix(1,0,0,1,1345,405) translate(75.75 48.6)"
       id="use661" />
    <path
       d="M1440 570c0 27.6-22.4 50-50 50s-50-22.4-50-50 22.4-50 50-50 50 22.4 50 50z"
       stroke="#000"
       stroke-width="2"
       fill="#ff8f80"
       id="path663" />
    <use
       xlink:href="#e"
       transform="matrix(1,0,0,1,1345,525) translate(4.25 48.6)"
       id="use665" />
    <use
       xlink:href="#i"
       transform="matrix(1,0,0,1,1345,525) translate(75.75 48.6)"
       id="use667" />
    <path
       d="M988 220c17.67 0 32 17.9 32 40s-14.33 40-32 40h-96c-17.67 0-32-17.9-32-40s14.33-40 32-40z"
       stroke="#000"
       stroke-width="2"
       fill="#c1e4f7"
       id="path669" />
    <use
       xlink:href="#j"
       transform="matrix(1,0,0,1,865,225) translate(22.924999999999997 38.6)"
       id="use671" />
    <use
       xlink:href="#k"
       transform="matrix(1,0,0,1,865,225) translate(115.075 38.6)"
       id="use673" />
    <path
       d="M988 360c17.67 0 32 17.9 32 40s-14.33 40-32 40h-96c-17.67 0-32-17.9-32-40s14.33-40 32-40z"
       stroke="#000"
       stroke-width="2"
       fill="#c1e4f7"
       id="path675" />
    <use
       xlink:href="#j"
       transform="matrix(1,0,0,1,865,365) translate(22.449999999999996 38.6)"
       id="use677" />
    <use
       xlink:href="#l"
       transform="matrix(1,0,0,1,865,365) translate(114.6 38.6)"
       id="use679" />
    <path
       d="M988 500c17.67 0 32 17.9 32 40s-14.33 40-32 40h-96c-17.67 0-32-17.9-32-40s14.33-40 32-40z"
       stroke="#000"
       stroke-width="2"
       fill="#c1e4f7"
       id="path681" />
    <use
       xlink:href="#j"
       transform="matrix(1,0,0,1,865,505) translate(26.424999999999997 38.6)"
       id="use683" />
    <use
       xlink:href="#m"
       transform="matrix(1,0,0,1,865,505) translate(118.575 38.6)"
       id="use685" />
    <path
       d="M1240 400c0 22.1-17.9 40-40 40s-40-17.9-40-40 17.9-40 40-40 40 17.9 40 40zm-80 0h80m-40-40v80"
       stroke="#000"
       stroke-width="2"
       fill="#fff"
       id="path687" />
    <path
       d="M1021 260h69.06v138.12h50.82"
       stroke="#000"
       stroke-width="2"
       fill="none"
       id="path689" />
    <path
       d="M1021 261h-1.06l.06-1-.04-1h1.04zM1155.88 398.12l-14.27 4.63v-9.27z"
       id="path691" />
    <path
       d="M1159.12 398.12l-18.5 6V392.1zm-16.5 3.25l10.02-3.25-10.03-3.26z"
       id="path693" />
    <path
       d="M1021 400h119.76"
       stroke="#000"
       stroke-width="2"
       fill="none"
       id="path695" />
    <path
       d="M1021 401h-1.06l.06-1-.04-1h1.04zM1155.76 400l-14.26 4.64v-9.28z"
       id="path697" />
    <path
       d="M1159 400l-18.5 6v-12zm-16.5 3.26l10.03-3.26-10.03-3.26z"
       id="path699" />
    <path
       d="M1021 540h69V400h50.76"
       stroke="#000"
       stroke-width="2"
       fill="none"
       id="path701" />
    <path
       d="M1021 541h-1.06l.06-1-.04-1h1.04zM1155.76 400l-14.26 4.64v-9.28z"
       id="path703" />
    <path
       d="M1159 400l-18.5 6v-12zm-16.5 3.26l10.03-3.26-10.03-3.26z"
       id="path705" />
    <path
       d="M1241 400h49V210h30.76"
       stroke="#000"
       stroke-width="2"
       fill="none"
       id="path707" />
    <path
       d="M1241 401h-1.06l.06-1-.04-1h1.04zM1335.76 210l-14.26 4.64v-9.28z"
       id="path709" />
    <path
       d="M1339 210l-18.5 6v-12zm-16.5 3.26l10.03-3.26-10.03-3.26z"
       id="path711" />
    <path
       d="M1241 400h49v-70h30.76"
       stroke="#000"
       stroke-width="2"
       fill="none"
       id="path713" />
    <path
       d="M1241 401h-1.06l.06-1-.04-1h1.04zM1335.76 330l-14.26 4.64v-9.28z"
       id="path715" />
    <path
       d="M1339 330l-18.5 6v-12zm-16.5 3.26l10.03-3.26-10.03-3.26z"
       id="path717" />
    <path
       d="M1241 400h49v50h30.76"
       stroke="#000"
       stroke-width="2"
       fill="none"
       id="path719" />
    <path
       d="M1241 401h-1.06l.06-1-.04-1h1.04zM1335.76 450l-14.26 4.64v-9.28z"
       id="path721" />
    <path
       d="M1339 450l-18.5 6v-12zm-16.5 3.26l10.03-3.26-10.03-3.26z"
       id="path723" />
    <path
       d="M1241 400h49v170h30.76"
       stroke="#000"
       stroke-width="2"
       fill="none"
       id="path725" />
    <path
       d="M1241 401h-1.06l.06-1-.04-1h1.04zM1335.76 570l-14.26 4.64v-9.28z"
       id="path727" />
    <path
       d="M1339 570l-18.5 6v-12zm-16.5 3.26l10.03-3.26-10.03-3.26z"
       id="path729" />
    <path
       d="M461 410h199V260h180.76"
       stroke="#000"
       stroke-width="2"
       fill="none"
       id="path731" />
    <path
       d="M461 411h-1.05l.05-1-.04-1H461zM855.76 260l-14.26 4.64v-9.28z"
       id="path733" />
    <path
       d="M859 260l-18.5 6v-12zm-16.5 3.26l10.03-3.26-10.03-3.26z"
       id="path735" />
    <path
       d="M461 410h380.76"
       stroke="#000"
       stroke-width="2"
       fill="none"
       id="path737" />
    <path
       d="M461 411h-1.05l.05-1-.04-1H461zM856.76 410l-14.27 4.64v-9.28z"
       id="path739" />
    <path
       d="M860 410l-18.5 6v-12zm-16.5 3.26L853.5 410l-10.03-3.26z"
       id="path741" />
    <path
       d="M461 410h199v130h180.76"
       stroke="#000"
       stroke-width="2"
       fill="none"
       id="path743" />
    <path
       d="M461 411h-1.05l.05-1-.04-1H461zM855.76 540l-14.26 4.64v-9.28z"
       id="path745" />
    <path
       d="M859 540l-18.5 6v-12zm-16.5 3.26l10.03-3.26-10.03-3.26z"
       id="path747" />
    <path
       d="M920 643h240v74H920z"
       stroke="#000"
       stroke-opacity="0"
       stroke-width="2"
       fill="#fff"
       fill-opacity="0"
       id="path749" />
    <g
       id="g753">
      <use
         xlink:href="#n"
         transform="matrix(1,0,0,1,925,648) translate(42.48148148148147 42.66666666666667)"
         id="use751" />
    </g>
    <g
       fill="none"
       id="g759">
      <path
         d="M604 750.3V840H106.62v-89.7z"
         id="path755" />
      <path
         d="M106.62 750.3c0 17.17 13.92 31.1 31.1 31.1h186.5c17.17 0 31.1 13.9 31.1 31.08 0-17.17 13.9-31.1 31.08-31.1h186.5c17.18 0 31.1-13.9 31.1-31.07"
         stroke="#000"
         stroke-width="2"
         id="path757" />
    </g>
    <path
       d="M211 840h240v68.67H211z"
       stroke="#000"
       stroke-opacity="0"
       stroke-width="2"
       fill="#fff"
       fill-opacity="0"
       id="path761" />
    <g
       id="g767">
      <use
         xlink:href="#o"
         transform="matrix(1,0,0,1,216,845) translate(68.21604938271605 19.72222222222222)"
         id="use763" />
      <use
         xlink:href="#p"
         transform="matrix(1,0,0,1,216,845) translate(37.04938271604938 49.05555555555556)"
         id="use765" />
    </g>
    <path
       d="M932 850.3h240v60H932z"
       stroke="#000"
       stroke-opacity="0"
       stroke-width="2"
       fill="#fff"
       fill-opacity="0"
       id="path769" />
    <g
       id="g775">
      <use
         xlink:href="#q"
         transform="matrix(1,0,0,1,937,855.3052304436737) translate(1.265432098765416 29.88888888888889)"
         id="use771" />
      <use
         xlink:href="#r"
         transform="matrix(1,0,0,1,937,855.3052304436737) translate(101.62345679012344 29.88888888888889)"
         id="use773" />
    </g>
    <g
       fill="none"
       id="g781">
      <path
         d="M1300.7 750.3V840H803.3v-89.7z"
         id="path777" />
      <path
         d="M803.3 750.3c0 17.17 13.93 31.1 31.1 31.1h186.5c17.18 0 31.1 13.9 31.1 31.08 0-17.17 13.92-31.1 31.1-31.1h186.5c17.17 0 31.1-13.9 31.1-31.07"
         stroke="#000"
         stroke-width="2"
         id="path779" />
    </g>
    <defs
       id="defs992">
      <path
         d="M30 0v-248h33v221h125V0H30"
         id="s" />
      <path
         d="M100-194c63 0 86 42 84 106H49c0 40 14 67 53 68 26 1 43-12 49-29l28 8c-11 28-37 45-77 45C44 4 14-33 15-96c1-61 26-98 85-98zm52 81c6-60-76-77-97-28-3 7-6 17-6 28h103"
         id="t" />
      <path
         d="M96-169c-40 0-48 33-48 73s9 75 48 75c24 0 41-14 43-38l32 2c-6 37-31 61-74 61-59 0-76-41-82-99-10-93 101-131 147-64 4 7 5 14 7 22l-32 3c-4-21-16-35-41-35"
         id="u" />
      <path
         d="M59-47c-2 24 18 29 38 22v24C64 9 27 4 27-40v-127H5v-23h24l9-43h21v43h35v23H59v120"
         id="v" />
      <path
         d="M84 4C-5 8 30-112 23-190h32v120c0 31 7 50 39 49 72-2 45-101 50-169h31l1 190h-30c-1-10 1-25-2-33-11 22-28 36-60 37"
         id="w" />
      <path
         d="M114-163C36-179 61-72 57 0H25l-1-190h30c1 12-1 29 2 39 6-27 23-49 58-41v29"
         id="x" />
      <path
         d="M141-36C126-15 110 5 73 4 37 3 15-17 15-53c-1-64 63-63 125-63 3-35-9-54-41-54-24 1-41 7-42 31l-33-3c5-37 33-52 76-52 45 0 72 20 72 64v82c-1 20 7 32 28 27v20c-31 9-61-2-59-35zM48-53c0 20 12 33 32 33 41-3 63-29 60-74-43 2-92-5-92 41"
         id="y" />
      <g
         id="a">
        <use
           transform="matrix(0.08641975308641976,0,0,0.08641975308641976,0,0)"
           xlink:href="#s"
           id="use790" />
        <use
           transform="matrix(0.08641975308641976,0,0,0.08641975308641976,17.283950617283953,0)"
           xlink:href="#t"
           id="use792" />
        <use
           transform="matrix(0.08641975308641976,0,0,0.08641975308641976,34.567901234567906,0)"
           xlink:href="#u"
           id="use794" />
        <use
           transform="matrix(0.08641975308641976,0,0,0.08641975308641976,50.12345679012346,0)"
           xlink:href="#v"
           id="use796" />
        <use
           transform="matrix(0.08641975308641976,0,0,0.08641975308641976,58.76543209876544,0)"
           xlink:href="#w"
           id="use798" />
        <use
           transform="matrix(0.08641975308641976,0,0,0.08641975308641976,76.0493827160494,0)"
           xlink:href="#x"
           id="use800" />
        <use
           transform="matrix(0.08641975308641976,0,0,0.08641975308641976,86.33333333333334,0)"
           xlink:href="#y"
           id="use802" />
      </g>
      <path
         d="M33 0v-248h34V0H33"
         id="z" />
      <path
         d="M101-251c82-7 93 87 43 132L82-64C71-53 59-42 53-27h129V0H18c2-99 128-94 128-182 0-28-16-43-45-43s-46 15-49 41l-32-3c6-41 34-60 81-64"
         id="A" />
      <path
         d="M212-179c-10-28-35-45-73-45-59 0-87 40-87 99 0 60 29 101 89 101 43 0 62-24 78-52l27 14C228-24 195 4 139 4 59 4 22-46 18-125c-6-104 99-153 187-111 19 9 31 26 39 46"
         id="B" />
      <g
         id="b">
        <use
           transform="matrix(0.08641975308641976,0,0,0.08641975308641976,0,0)"
           xlink:href="#z"
           id="use808" />
        <use
           transform="matrix(0.08641975308641976,0,0,0.08641975308641976,8.641975308641976,0)"
           xlink:href="#A"
           id="use810" />
        <use
           transform="matrix(0.08641975308641976,0,0,0.08641975308641976,25.925925925925927,0)"
           xlink:href="#B"
           id="use812" />
      </g>
      <path
         d="M240 0l2-218c-23 76-54 145-80 218h-23L58-218 59 0H30v-248h44l77 211c21-75 51-140 76-211h43V0h-30"
         id="C" />
      <path
         d="M24-231v-30h32v30H24zM24 0v-190h32V0H24"
         id="D" />
      <path
         d="M100-194c62-1 85 37 85 99 1 63-27 99-86 99S16-35 15-95c0-66 28-99 85-99zM99-20c44 1 53-31 53-75 0-43-8-75-51-75s-53 32-53 75 10 74 51 75"
         id="E" />
      <path
         d="M16-82v-28h88v28H16"
         id="F" />
      <path
         d="M117-194c89-4 53 116 60 194h-32v-121c0-31-8-49-39-48C34-167 62-67 57 0H25l-1-190h30c1 10-1 24 2 32 11-22 29-35 61-36"
         id="G" />
      <path
         d="M24 0v-261h32V0H24"
         id="H" />
      <path
         d="M85-194c31 0 48 13 60 33l-1-100h32l1 261h-30c-2-10 0-23-3-31C134-8 116 4 85 4 32 4 16-35 15-94c0-66 23-100 70-100zm9 24c-40 0-46 34-46 75 0 40 6 74 45 74 42 0 51-32 51-76 0-42-9-74-50-73"
         id="I" />
      <g
         id="c">
        <use
           transform="matrix(0.14814814814814817,0,0,0.14814814814814817,0,0)"
           xlink:href="#C"
           id="use822" />
        <use
           transform="matrix(0.14814814814814817,0,0,0.14814814814814817,44.296296296296305,0)"
           xlink:href="#D"
           id="use824" />
        <use
           transform="matrix(0.14814814814814817,0,0,0.14814814814814817,56.000000000000014,0)"
           xlink:href="#u"
           id="use826" />
        <use
           transform="matrix(0.14814814814814817,0,0,0.14814814814814817,82.66666666666667,0)"
           xlink:href="#x"
           id="use828" />
        <use
           transform="matrix(0.14814814814814817,0,0,0.14814814814814817,100.29629629629633,0)"
           xlink:href="#E"
           id="use830" />
        <use
           transform="matrix(0.14814814814814817,0,0,0.14814814814814817,129.92592592592595,0)"
           xlink:href="#F"
           id="use832" />
        <use
           transform="matrix(0.14814814814814817,0,0,0.14814814814814817,147.5555555555556,0)"
           xlink:href="#u"
           id="use834" />
        <use
           transform="matrix(0.14814814814814817,0,0,0.14814814814814817,174.22222222222229,0)"
           xlink:href="#E"
           id="use836" />
        <use
           transform="matrix(0.14814814814814817,0,0,0.14814814814814817,203.8518518518519,0)"
           xlink:href="#G"
           id="use838" />
        <use
           transform="matrix(0.14814814814814817,0,0,0.14814814814814817,233.48148148148152,0)"
           xlink:href="#v"
           id="use840" />
        <use
           transform="matrix(0.14814814814814817,0,0,0.14814814814814817,248.29629629629633,0)"
           xlink:href="#x"
           id="use842" />
        <use
           transform="matrix(0.14814814814814817,0,0,0.14814814814814817,265.925925925926,0)"
           xlink:href="#E"
           id="use844" />
        <use
           transform="matrix(0.14814814814814817,0,0,0.14814814814814817,295.5555555555556,0)"
           xlink:href="#H"
           id="use846" />
        <use
           transform="matrix(0.14814814814814817,0,0,0.14814814814814817,307.2592592592593,0)"
           xlink:href="#y"
           id="use848" />
        <use
           transform="matrix(0.14814814814814817,0,0,0.14814814814814817,336.8888888888889,0)"
           xlink:href="#I"
           id="use850" />
        <use
           transform="matrix(0.14814814814814817,0,0,0.14814814814814817,366.5185185185186,0)"
           xlink:href="#E"
           id="use852" />
        <use
           transform="matrix(0.14814814814814817,0,0,0.14814814814814817,396.14814814814815,0)"
           xlink:href="#x"
           id="use854" />
      </g>
      <path
         d="M185-189c-5-48-123-54-124 2 14 75 158 14 163 119 3 78-121 87-175 55-17-10-28-26-33-46l33-7c5 56 141 63 141-1 0-78-155-14-162-118-5-82 145-84 179-34 5 7 8 16 11 25"
         id="J" />
      <path
         d="M30 0v-248h187v28H63v79h144v27H63v87h162V0H30"
         id="K" />
      <path
         d="M190 0L58-211 59 0H30v-248h39L202-35l-2-213h31V0h-41"
         id="L" />
      <path
         d="M140-251c81 0 123 46 123 126C263-46 219 4 140 4 59 4 17-45 17-125s42-126 123-126zm0 227c63 0 89-41 89-101s-29-99-89-99c-61 0-89 39-89 99S79-25 140-24"
         id="M" />
      <path
         d="M233-177c-1 41-23 64-60 70L243 0h-38l-65-103H63V0H30v-248c88 3 205-21 203 71zM63-129c60-2 137 13 137-47 0-61-80-42-137-45v92"
         id="N" />
      <g
         id="d">
        <use
           transform="matrix(0.05,0,0,0.05,0,0)"
           xlink:href="#J"
           id="use862" />
        <use
           transform="matrix(0.05,0,0,0.05,12,0)"
           xlink:href="#K"
           id="use864" />
        <use
           transform="matrix(0.05,0,0,0.05,24,0)"
           xlink:href="#L"
           id="use866" />
        <use
           transform="matrix(0.05,0,0,0.05,36.95,0)"
           xlink:href="#J"
           id="use868" />
        <use
           transform="matrix(0.05,0,0,0.05,48.95,0)"
           xlink:href="#M"
           id="use870" />
        <use
           transform="matrix(0.05,0,0,0.05,62.95,0)"
           xlink:href="#N"
           id="use872" />
      </g>
      <path
         d="M127-220V0H93v-220H8v-28h204v28h-85"
         id="O" />
      <g
         id="e">
        <use
           transform="matrix(0.05,0,0,0.05,0,0)"
           xlink:href="#C"
           id="use876" />
        <use
           transform="matrix(0.05,0,0,0.05,14.950000000000001,0)"
           xlink:href="#M"
           id="use878" />
        <use
           transform="matrix(0.05,0,0,0.05,28.950000000000003,0)"
           xlink:href="#O"
           id="use880" />
        <use
           transform="matrix(0.05,0,0,0.05,39.550000000000004,0)"
           xlink:href="#M"
           id="use882" />
        <use
           transform="matrix(0.05,0,0,0.05,53.550000000000004,0)"
           xlink:href="#N"
           id="use884" />
      </g>
      <path
         d="M27 0v-27h64v-190l-56 39v-29l58-41h29v221h61V0H27"
         id="P" />
      <use
         transform="matrix(0.05,0,0,0.05,0,0)"
         xlink:href="#P"
         id="f" />
      <use
         transform="matrix(0.05,0,0,0.05,0,0)"
         xlink:href="#A"
         id="g" />
      <path
         d="M126-127c33 6 58 20 58 59 0 88-139 92-164 29-3-8-5-16-6-25l32-3c6 27 21 44 54 44 32 0 52-15 52-46 0-38-36-46-79-43v-28c39 1 72-4 72-42 0-27-17-43-46-43-28 0-47 15-49 41l-32-3c6-42 35-63 81-64 48-1 79 21 79 65 0 36-21 52-52 59"
         id="Q" />
      <use
         transform="matrix(0.05,0,0,0.05,0,0)"
         xlink:href="#Q"
         id="h" />
      <path
         d="M155-56V0h-30v-56H8v-25l114-167h33v167h35v25h-35zm-30-156c-27 46-58 90-88 131h88v-131"
         id="R" />
      <use
         transform="matrix(0.05,0,0,0.05,0,0)"
         xlink:href="#R"
         id="i" />
      <g
         id="j">
        <use
           transform="matrix(0.05,0,0,0.05,0,0)"
           xlink:href="#B"
           id="use894" />
        <use
           transform="matrix(0.05,0,0,0.05,12.950000000000001,0)"
           xlink:href="#M"
           id="use896" />
        <use
           transform="matrix(0.05,0,0,0.05,26.950000000000003,0)"
           xlink:href="#L"
           id="use898" />
        <use
           transform="matrix(0.05,0,0,0.05,39.900000000000006,0)"
           xlink:href="#O"
           id="use900" />
        <use
           transform="matrix(0.05,0,0,0.05,50.85000000000001,0)"
           xlink:href="#N"
           id="use902" />
        <use
           transform="matrix(0.05,0,0,0.05,63.80000000000001,0)"
           xlink:href="#M"
           id="use904" />
        <use
           transform="matrix(0.05,0,0,0.05,77.80000000000001,0)"
           xlink:href="#s"
           id="use906" />
      </g>
      <path
         d="M30-248c87 1 191-15 191 75 0 78-77 80-158 76V0H30v-248zm33 125c57 0 124 11 124-50 0-59-68-47-124-48v98"
         id="S" />
      <use
         transform="matrix(0.05,0,0,0.05,0,0)"
         xlink:href="#S"
         id="k" />
      <path
         d="M30-248c118-7 216 8 213 122C240-48 200 0 122 0H30v-248zM63-27c89 8 146-16 146-99s-60-101-146-95v194"
         id="T" />
      <use
         transform="matrix(0.05,0,0,0.05,0,0)"
         xlink:href="#T"
         id="l" />
      <use
         transform="matrix(0.05,0,0,0.05,0,0)"
         xlink:href="#z"
         id="m" />
      <path
         d="M63-220v92h138v28H63V0H30v-248h175v28H63"
         id="U" />
      <path
         d="M143 4C61 4 22-44 18-125c-5-107 100-154 193-111 17 8 29 25 37 43l-32 9c-13-25-37-40-76-40-61 0-88 39-88 99 0 61 29 100 91 101 35 0 62-11 79-27v-45h-74v-28h105v86C228-13 192 4 143 4"
         id="V" />
      <path
         d="M205 0l-28-72H64L36 0H1l101-248h38L239 0h-34zm-38-99l-47-123c-12 45-31 82-46 123h93"
         id="W" />
      <g
         id="n">
        <use
           transform="matrix(0.14814814814814817,0,0,0.14814814814814817,0,0)"
           xlink:href="#U"
           id="use917" />
        <use
           transform="matrix(0.14814814814814817,0,0,0.14814814814814817,32.44444444444445,0)"
           xlink:href="#S"
           id="use919" />
        <use
           transform="matrix(0.14814814814814817,0,0,0.14814814814814817,68,0)"
           xlink:href="#V"
           id="use921" />
        <use
           transform="matrix(0.14814814814814817,0,0,0.14814814814814817,109.4814814814815,0)"
           xlink:href="#W"
           id="use923" />
      </g>
      <path
         d="M195-316c-3 24-8 48-35 47-28-1-64-43-75 0H69c4-23 8-48 36-47s64 44 74 0h16zM190 0L58-211 59 0H30v-248h39L202-35l-2-213h31V0h-41"
         id="X" />
      <g
         id="o">
        <use
           transform="matrix(0.06790123456790124,0,0,0.06790123456790124,0,0)"
           xlink:href="#T"
           id="use927" />
        <use
           transform="matrix(0.06790123456790124,0,0,0.06790123456790124,17.58641975308642,0)"
           xlink:href="#z"
           id="use929" />
        <use
           transform="matrix(0.06790123456790124,0,0,0.06790123456790124,24.376543209876544,0)"
           xlink:href="#J"
           id="use931" />
        <use
           transform="matrix(0.06790123456790124,0,0,0.06790123456790124,40.67283950617284,0)"
           xlink:href="#K"
           id="use933" />
        <use
           transform="matrix(0.06790123456790124,0,0,0.06790123456790124,56.96913580246914,0)"
           xlink:href="#X"
           id="use935" />
        <use
           transform="matrix(0.06790123456790124,0,0,0.06790123456790124,74.55555555555556,0)"
           xlink:href="#M"
           id="use937" />
      </g>
      <path
         d="M232-93c-1 65-40 97-104 97C67 4 28-28 28-90v-158h33c8 89-33 224 67 224 102 0 64-133 71-224h33v155"
         id="Y" />
      <g
         id="p">
        <use
           transform="matrix(0.06790123456790124,0,0,0.06790123456790124,0,0)"
           xlink:href="#J"
           id="use941" />
        <use
           transform="matrix(0.06790123456790124,0,0,0.06790123456790124,16.296296296296298,0)"
           xlink:href="#K"
           id="use943" />
        <use
           transform="matrix(0.06790123456790124,0,0,0.06790123456790124,32.592592592592595,0)"
           xlink:href="#B"
           id="use945" />
        <use
           transform="matrix(0.06790123456790124,0,0,0.06790123456790124,50.17901234567901,0)"
           xlink:href="#Y"
           id="use947" />
        <use
           transform="matrix(0.06790123456790124,0,0,0.06790123456790124,67.76543209876543,0)"
           xlink:href="#K"
           id="use949" />
        <use
           transform="matrix(0.06790123456790124,0,0,0.06790123456790124,84.06172839506172,0)"
           xlink:href="#L"
           id="use951" />
        <use
           transform="matrix(0.06790123456790124,0,0,0.06790123456790124,101.64814814814814,0)"
           xlink:href="#B"
           id="use953" />
        <use
           transform="matrix(0.06790123456790124,0,0,0.06790123456790124,119.23456790123456,0)"
           xlink:href="#z"
           id="use955" />
        <use
           transform="matrix(0.06790123456790124,0,0,0.06790123456790124,126.02469135802468,0)"
           xlink:href="#W"
           id="use957" />
        <use
           transform="matrix(0.06790123456790124,0,0,0.06790123456790124,142.320987654321,0)"
           xlink:href="#s"
           id="use959" />
      </g>
      <g
         id="q">
        <use
           transform="matrix(0.06790123456790124,0,0,0.06790123456790124,0,0)"
           xlink:href="#T"
           id="use962" />
        <use
           transform="matrix(0.06790123456790124,0,0,0.06790123456790124,17.58641975308642,0)"
           xlink:href="#z"
           id="use964" />
        <use
           transform="matrix(0.06790123456790124,0,0,0.06790123456790124,24.376543209876544,0)"
           xlink:href="#J"
           id="use966" />
        <use
           transform="matrix(0.06790123456790124,0,0,0.06790123456790124,40.67283950617284,0)"
           xlink:href="#K"
           id="use968" />
        <use
           transform="matrix(0.06790123456790124,0,0,0.06790123456790124,56.96913580246914,0)"
           xlink:href="#X"
           id="use970" />
        <use
           transform="matrix(0.06790123456790124,0,0,0.06790123456790124,74.55555555555556,0)"
           xlink:href="#M"
           id="use972" />
      </g>
      <g
         id="r">
        <use
           transform="matrix(0.06790123456790124,0,0,0.06790123456790124,0,0)"
           xlink:href="#S"
           id="use975" />
        <use
           transform="matrix(0.06790123456790124,0,0,0.06790123456790124,14.462962962962964,0)"
           xlink:href="#W"
           id="use977" />
        <use
           transform="matrix(0.06790123456790124,0,0,0.06790123456790124,30.75925925925926,0)"
           xlink:href="#N"
           id="use979" />
        <use
           transform="matrix(0.06790123456790124,0,0,0.06790123456790124,48.345679012345684,0)"
           xlink:href="#W"
           id="use981" />
        <use
           transform="matrix(0.06790123456790124,0,0,0.06790123456790124,64.64197530864197,0)"
           xlink:href="#s"
           id="use983" />
        <use
           transform="matrix(0.06790123456790124,0,0,0.06790123456790124,78.22222222222223,0)"
           xlink:href="#K"
           id="use985" />
        <use
           transform="matrix(0.06790123456790124,0,0,0.06790123456790124,94.51851851851853,0)"
           xlink:href="#s"
           id="use987" />
        <use
           transform="matrix(0.06790123456790124,0,0,0.06790123456790124,108.09876543209879,0)"
           xlink:href="#M"
           id="use989" />
      </g>
    </defs>
  </g>
</svg>
