<?xml version="1.0" ?><svg style="enable-background:new 0 0 256 256;" version="1.1" viewBox="0 0 256 256" xml:space="preserve" xmlns="http://www.w3.org/2000/svg" xmlns:xlink="http://www.w3.org/1999/xlink"><style type="text/css">
	.st0{fill:#D5E2EB;}
	.st1{fill:none;stroke:#00A388;stroke-width:4;stroke-miterlimit:10;}
	.st2{fill:#FFFFFF;}
	.st3{fill:#CC4E47;}
	.st4{fill:#EA685E;}
	.st5{fill:#4B687F;}
	.st6{fill:#2C3E50;}
	.st7{fill:#3E5063;}
	.st8{fill:#FFAB80;}
	.st9{filter:url(#Adobe_OpacityMaskFilter);}
	.st10{mask:url(#SVGID_2_);}
	.st11{fill:#F09A79;}
	.st12{fill:#00886F;}
	.st13{fill:#00A388;}
	.st14{fill:none;stroke:#3E5063;stroke-width:4;stroke-miterlimit:10;}
	.st15{fill:#FFD766;}
	.st16{fill:#5488B7;}
	.st17{fill:#8C623B;}
	.st18{fill:#E6E6E6;stroke:#3E5063;stroke-width:16;stroke-miterlimit:10;}
	.st19{opacity:0.6;}
	.st20{fill:#E6E6E6;}
	.st21{fill:none;stroke:#D5E2EB;stroke-width:5;stroke-miterlimit:10;}
	.st22{fill:#FFEC9F;}
	.st23{fill:#603813;}
	.st24{filter:url(#Adobe_OpacityMaskFilter_1_);}
	.st25{mask:url(#SVGID_1_);}
</style><g id="Layer_2"><circle class="st0" cx="128" cy="128" r="120"/></g><g id="Layer_1"><g><g><path class="st3" d="M197.72742,124.78061c-0.16945-1.87122-1.65021-3.35934-3.52225-3.53698l-11.81175-1.11241     c-1.59865-0.14735-2.95499-1.26795-3.36754-2.82238c-1.20819-4.50205-2.99182-8.761-5.26822-12.70316     c-0.80301-1.39236-0.64095-3.14653,0.38309-4.38419l7.57491-9.14408c1.20082-1.44393,1.18608-3.54435-0.01474-4.98828     c-2.67505-3.18336-5.61447-6.13016-8.79047-8.79046c-1.44394-1.20819-3.54434-1.21556-4.99564-0.01474l-9.13672,7.57491     c-1.24503,1.02401-2.99182,1.18609-4.39156,0.37572c-3.9348-2.2764-8.20111-4.06741-12.70316-5.27559     c-1.55444-0.41255-2.66768-1.7689-2.82239-3.36754l-1.10504-11.80438c-0.17682-1.87122-1.66495-3.34544-3.53699-3.51488     c-2.04884-0.18418-4.11896-0.27258-6.21938-0.27258c-2.0996,0-4.17054,0.0884-6.21857,0.27258     c-1.87122,0.16944-3.36017,1.64284-3.53698,3.51488l-1.10505,11.80438c-0.15471,1.59864-1.26713,2.95499-2.82238,3.36754     c-4.50205,1.20819-8.76837,2.99919-12.70316,5.27559c-1.39973,0.81037-3.14652,0.64829-4.39156-0.37572l-9.13672-7.57491     c-1.45129-1.20082-3.55171-1.19346-4.99564,0.01473c-3.17599,2.6603-6.11624,5.60793-8.79046,8.79047     c-1.20083,1.44393-1.21556,3.54435-0.01473,4.98828l7.57491,9.13671c1.02402,1.24503,1.18609,2.99919,0.37572,4.39155     c-2.28458,3.94217-4.0674,8.20847-5.26822,12.70316c-0.41992,1.55444-1.77544,2.67503-3.3749,2.82974l-11.80439,1.10505     c-1.86385,0.17681-3.34544,1.66494-3.51488,3.52961C58.08841,126.82127,58,128.89958,58,131     c0,2.09222,0.08841,4.17053,0.27258,6.21857c0.16944,1.87122,1.65021,3.3528,3.51488,3.5296l11.80439,1.11243     c1.59864,0.14734,2.95498,1.26794,3.3749,2.82237c1.20082,4.50206,2.98445,8.761,5.26822,12.70316     c0.81037,1.39236,0.6483,3.14653-0.37572,4.39156l-7.57491,9.13753c-1.20083,1.44394-1.18609,3.55171,0.01473,4.98827     c2.67503,3.18993,5.61447,6.13017,8.79046,8.79047c1.44393,1.20819,3.54435,1.21556,4.99564,0.01474l9.13672-7.56754     c1.24502-1.03137,2.99182-1.19345,4.38419-0.38309c3.94215,2.27722,8.20847,4.06004,12.71053,5.26085     c1.54707,0.41992,2.66767,1.7681,2.82238,3.37491l1.10505,11.81177c0.17681,1.87122,1.66494,3.3528,3.53698,3.51488     c2.04885,0.18417,4.11897,0.27994,6.21857,0.27994c2.10041,0,4.17054-0.09576,6.21938-0.27994     c1.87122-0.16208,3.36017-1.64284,3.53699-3.51488l1.10504-11.81175c0.15471-1.60683,1.27451-2.95499,2.82239-3.37491     c4.50204-1.20081,8.76837-2.98445,12.71053-5.26085c1.39236-0.81038,3.13916-0.6483,4.38419,0.38309l9.13672,7.56754     c1.45129,1.20082,3.55171,1.19345,4.99564-0.01474c3.17599-2.66031,6.11624-5.59973,8.79047-8.79047     c1.20082-1.43738,1.21556-3.54434,0.01474-4.98827l-7.57491-9.14409c-1.02403-1.23766-1.1861-2.98445-0.38309-4.38419     c2.27721-3.94215,4.06003-8.2011,5.26822-12.70316c0.41255-1.55444,1.76889-2.67503,3.36754-2.82237l11.81175-1.11243     c1.87122-0.1768,3.3528-1.65758,3.52225-3.5296c0.18417-2.04884,0.27258-4.12634,0.27258-6.21857     C197.99997,128.89958,197.91158,126.82945,197.72742,124.78061z M127.99876,163.35504     c-17.86824,0-32.3624-14.48598-32.3624-32.35504c0-17.87643,14.49333-32.36241,32.3624-32.36241     s32.3624,14.48679,32.3624,32.3624C160.36116,148.86823,145.86783,163.35504,127.99876,163.35504z"/></g><g><path class="st4" d="M197.72742,118.78061c-0.16945-1.87122-1.65021-3.35934-3.52225-3.53698l-11.81175-1.11241     c-1.59865-0.14735-2.95499-1.26795-3.36754-2.82238c-1.20819-4.50205-2.99182-8.761-5.26822-12.70316     c-0.80301-1.39236-0.64095-3.14653,0.38309-4.38419l7.57491-9.14408c1.20082-1.44393,1.18608-3.54435-0.01474-4.98828     c-2.67505-3.18336-5.61447-6.13016-8.79047-8.79046c-1.44394-1.20819-3.54434-1.21556-4.99564-0.01474l-9.13672,7.57491     c-1.24503,1.02401-2.99182,1.18609-4.39156,0.37572c-3.9348-2.2764-8.20111-4.06741-12.70316-5.27559     c-1.55444-0.41255-2.66768-1.7689-2.82239-3.36754l-1.10504-11.80438c-0.17682-1.87122-1.66495-3.34544-3.53699-3.51488     c-2.04884-0.18418-4.11896-0.27258-6.21938-0.27258c-2.0996,0-4.17054,0.0884-6.21857,0.27258     c-1.87122,0.16944-3.36017,1.64284-3.53698,3.51488l-1.10505,11.80438c-0.15471,1.59864-1.26713,2.95499-2.82238,3.36754     c-4.50205,1.20819-8.76837,2.99919-12.70316,5.27559c-1.39973,0.81037-3.14652,0.64829-4.39156-0.37572l-9.13672-7.57491     c-1.45129-1.20082-3.55171-1.19346-4.99564,0.01473c-3.17599,2.6603-6.11624,5.60793-8.79046,8.79047     c-1.20083,1.44393-1.21556,3.54435-0.01473,4.98828l7.57491,9.13671c1.02402,1.24503,1.18609,2.99919,0.37572,4.39155     c-2.28458,3.94217-4.0674,8.20847-5.26822,12.70316c-0.41992,1.55444-1.77544,2.67503-3.3749,2.82974l-11.80439,1.10505     c-1.86385,0.17681-3.34544,1.66494-3.51488,3.52961C58.08841,120.82127,58,122.89958,58,125     c0,2.09222,0.08841,4.17053,0.27258,6.21857c0.16944,1.87122,1.65021,3.3528,3.51488,3.5296l11.80439,1.11243     c1.59864,0.14734,2.95498,1.26794,3.3749,2.82237c1.20082,4.50206,2.98445,8.761,5.26822,12.70316     c0.81037,1.39236,0.6483,3.14653-0.37572,4.39156l-7.57491,9.13753c-1.20083,1.44394-1.18609,3.55171,0.01473,4.98827     c2.67503,3.18993,5.61447,6.13017,8.79046,8.79047c1.44393,1.20819,3.54435,1.21556,4.99564,0.01474l9.13672-7.56754     c1.24502-1.03137,2.99182-1.19345,4.38419-0.38309c3.94215,2.27722,8.20847,4.06004,12.71053,5.26085     c1.54707,0.41992,2.66767,1.7681,2.82238,3.37491l1.10505,11.81177c0.17681,1.87122,1.66494,3.3528,3.53698,3.51488     c2.04885,0.18417,4.11897,0.27994,6.21857,0.27994c2.10041,0,4.17054-0.09576,6.21938-0.27994     c1.87122-0.16208,3.36017-1.64284,3.53699-3.51488l1.10504-11.81175c0.15471-1.60683,1.27451-2.95499,2.82239-3.37491     c4.50204-1.20081,8.76837-2.98445,12.71053-5.26085c1.39236-0.81038,3.13916-0.6483,4.38419,0.38309l9.13672,7.56754     c1.45129,1.20082,3.55171,1.19345,4.99564-0.01474c3.17599-2.66031,6.11624-5.59973,8.79047-8.79047     c1.20082-1.43738,1.21556-3.54434,0.01474-4.98827l-7.57491-9.14409c-1.02403-1.23766-1.1861-2.98445-0.38309-4.38419     c2.27721-3.94215,4.06003-8.2011,5.26822-12.70316c0.41255-1.55444,1.76889-2.67503,3.36754-2.82237l11.81175-1.11243     c1.87122-0.1768,3.3528-1.65758,3.52225-3.5296c0.18417-2.04884,0.27258-4.12634,0.27258-6.21857     C197.99997,122.89957,197.91158,120.82945,197.72742,118.78061z M127.99876,157.35504     c-17.86824,0-32.3624-14.48598-32.3624-32.35504c0-17.87643,14.49333-32.36241,32.3624-32.36241     s32.3624,14.48679,32.3624,32.3624C160.36116,142.86823,145.86783,157.35504,127.99876,157.35504z"/></g></g></g></svg>